<svg width="36" height="24" viewBox="0 0 36 24" fill="none" xmlns="http://www.w3.org/2000/svg">
<defs>
<linearGradient id="paint0_linear_26_1192" x1="32.6913" y1="20.988" x2="32.6913" y2="23.7711" gradientUnits="userSpaceOnUse">
<stop stop-color="#149BD7"/>
<stop offset="1" stop-color="#2F4D99"/>
</linearGradient>
<linearGradient id="paint1_linear_26_1192" x1="3.29327" y1="20.988" x2="3.29327" y2="23.7711" gradientUnits="userSpaceOnUse">
<stop stop-color="#149BD7"/>
<stop offset="1" stop-color="#2F4D99"/>
</linearGradient>
<linearGradient id="paint2_linear_26_1192" x1="17.999" y1="0" x2="17.999" y2="21.7209" gradientUnits="userSpaceOnUse">
<stop stop-color="#149BD7"/>
<stop offset="1" stop-color="#2F4D99"/>
</linearGradient>
</defs>
<path d="M35.0759 20.988C35.0354 21.265 34.9678 21.5352 34.8665 21.7446C34.6841 22.1161 34.5085 22.1499 33.8194 22.1161C32.9278 22.0756 31.6511 22.1161 30.3 22.1702C30.3 22.5417 30.3136 22.7173 30.3136 22.7173C30.4014 23.7374 30.8607 23.7711 31.0431 23.7711H33.9478C34.2045 23.7711 34.4409 23.7711 34.6233 23.6495C34.8597 23.4942 34.961 23.0416 35.0489 22.2512C35.0624 22.1364 35.0691 21.9878 35.0759 21.8122V21.8054C35.0759 21.7514 35.0826 21.6838 35.0826 21.6095V21.5352C35.0826 21.3528 35.0826 21.1502 35.0759 20.988Z" fill="url(#paint0_linear_26_1192)"/>
<path d="M0.908733 20.988C0.949263 21.265 1.01681 21.5352 1.11814 21.7446C1.30053 22.1161 1.47616 22.1499 2.16518 22.1161C3.05685 22.0756 4.33355 22.1161 5.68457 22.1702C5.68457 22.5417 5.67106 22.7173 5.67106 22.7173C5.58324 23.7374 5.1239 23.7711 4.94151 23.7711H2.03683C1.78014 23.7711 1.56397 23.7711 1.36132 23.6495C1.11814 23.5077 1.02357 23.0416 0.935753 22.2512C0.922243 22.1364 0.915488 21.9878 0.908733 21.8122V21.8054C0.908733 21.7514 0.901978 21.6838 0.901978 21.6095V21.5352C0.908733 21.3528 0.908733 21.1502 0.908733 20.988Z" fill="url(#paint1_linear_26_1192)"/>
<path d="M35.292 14.618C35.292 12.5442 35.0218 10.5177 34.9137 10.2947C34.8327 10.1326 34.3125 9.70704 33.1304 8.90319C31.9348 8.08582 31.9618 8.20742 31.7456 7.67377C31.9415 7.61297 32.1307 7.49813 32.2455 7.48462C32.5022 7.4576 32.5157 7.70079 33.0493 7.70079C33.583 7.70079 34.7381 7.55893 34.9745 7.3225C35.211 7.08607 35.2853 7.00501 35.2853 6.79561C35.2853 6.5862 35.1637 6.15387 34.934 5.89718C34.7043 5.64049 33.7249 5.51214 33.1507 5.43784C32.5765 5.36353 32.4954 5.43784 32.3468 5.53241C32.1104 5.68102 32.0969 7.03879 32.0969 7.03879L31.5362 7.0523C31.1714 6.15387 30.6648 4.34351 29.8745 2.91819C29.0098 1.36453 28.1046 0.87816 27.7264 0.756569C27.3548 0.641732 27.0171 0.560671 24.4839 0.303978C21.8967 0.0337754 19.8364 0 17.999 0C16.1617 0 14.1014 0.0405304 11.5142 0.303978C8.98102 0.567426 8.64327 0.641732 8.27174 0.756569C7.90021 0.871405 6.98827 1.36453 6.12362 2.91819C5.33328 4.34351 4.82665 6.15387 4.46188 7.0523L3.9012 7.03879C3.9012 7.03879 3.89445 5.68102 3.65127 5.53241C3.50266 5.43784 3.42159 5.35677 2.84741 5.43784C2.27323 5.5189 1.29375 5.64049 1.06407 5.89718C0.834401 6.15387 0.71281 6.5862 0.71281 6.79561C0.71281 7.00501 0.787116 7.09283 1.02354 7.3225C1.25997 7.55893 2.41509 7.70079 2.94874 7.70079C3.48239 7.70079 3.4959 7.4576 3.75259 7.48462C3.86743 7.49813 4.06333 7.61297 4.25247 7.67377C4.02955 8.20742 4.06333 8.08582 2.86768 8.90319C1.68554 9.7138 1.15864 10.1326 1.08434 10.2947C0.976258 10.5177 0.706055 12.5442 0.706055 14.618C0.706055 16.6918 0.854666 18.5562 0.854666 19.2182C0.854666 19.4951 0.854666 19.9815 0.915462 20.4476C0.955992 20.7246 1.01679 20.9948 1.12487 21.2042C1.30726 21.5757 1.47613 21.6095 2.17191 21.5757C3.06358 21.5352 4.35379 21.5757 5.68454 21.6298C6.57621 21.6635 7.48815 21.6973 8.29876 21.7176C10.3253 21.7581 9.73083 21.4203 10.5955 21.4339C11.4601 21.4474 14.8714 21.5892 17.9923 21.5892C21.1131 21.5892 24.5312 21.4474 25.3891 21.4339C26.2537 21.4203 25.6593 21.7581 27.6858 21.7176C28.4964 21.7041 29.4084 21.6635 30.3 21.6298C31.6308 21.5825 32.9278 21.5352 33.8127 21.5757C34.5084 21.6095 34.6773 21.5757 34.8597 21.2042C34.961 20.9948 35.0286 20.7246 35.0691 20.4476C35.1367 19.9815 35.1299 19.4951 35.1299 19.2182C35.1434 18.5629 35.292 16.6918 35.292 14.618V14.618ZM6.52893 4.3908C6.85317 3.63423 7.8259 2.11434 8.29876 1.84414C8.41359 1.77658 9.4201 1.4591 11.9397 1.29022C14.2567 1.13485 16.8169 1.07406 18.0058 1.07406C19.1947 1.07406 21.7549 1.13485 24.0719 1.29022C26.5847 1.4591 27.6048 1.76983 27.7128 1.84414C28.3208 2.26295 29.1584 3.63423 29.4827 4.3908C29.8069 5.14737 30.2392 6.63348 30.1582 6.83614C30.0771 7.03879 30.2392 7.14011 29.1449 7.0523C28.0573 6.97124 21.228 6.88342 18.0126 6.88342C14.8039 6.88342 7.97451 6.97124 6.88019 7.0523C5.78587 7.13336 5.94799 7.03879 5.86693 6.83614C5.77236 6.63348 6.20468 5.15412 6.52893 4.3908V4.3908ZM9.0148 12.8482C8.52843 12.9697 8.23796 13.2332 7.63001 13.2264C7.02205 13.2264 5.38057 12.9495 5.0293 12.936C4.67804 12.9225 4.3673 13.1724 4.18492 13.2197C4.00253 13.267 3.64451 13.1386 3.10411 12.9697C2.5637 12.8009 2.24621 12.8482 2.07058 12.1118C1.88819 11.3823 2.07058 10.3353 2.07058 10.3353C3.23921 10.2812 4.3673 10.3893 6.48164 10.9838C8.59598 11.5782 9.77136 12.7198 9.77136 12.7198C9.77136 12.7198 9.50116 12.7266 9.0148 12.8482V12.8482ZM24.9027 18.1712C23.9368 18.2995 19.8905 18.3333 17.999 18.3333C16.1076 18.3333 12.0613 18.2927 11.0954 18.1712C10.1091 18.0428 8.82565 16.8607 9.71057 15.9217C10.9062 14.645 10.6833 14.6855 13.3988 14.3343C15.7496 14.0303 17.5329 14.0168 17.999 14.0168C18.4584 14.0168 20.2485 14.037 22.5993 14.3343C25.3148 14.6855 25.0919 14.645 26.2875 15.9217C27.1724 16.8607 25.889 18.0428 24.9027 18.1712V18.1712ZM33.9275 12.1186C33.7451 12.8482 33.4344 12.8076 32.894 12.9765C32.3536 13.1454 31.9956 13.267 31.8132 13.2264C31.6308 13.1859 31.3201 12.936 30.9688 12.9427C30.6175 12.9562 28.976 13.2332 28.3681 13.2332C27.7601 13.2332 27.4697 12.9765 26.9833 12.8549C26.4969 12.7333 26.2267 12.7333 26.2267 12.7333C26.2267 12.7333 27.3954 11.585 29.5164 10.9973C31.6308 10.4028 32.7589 10.2947 33.9275 10.3488C33.9275 10.3353 34.1099 11.3823 33.9275 12.1186Z" fill="url(#paint2_linear_26_1192)"/>
</svg>
